<svg height="512" viewBox="0 0 60 60" width="512" xmlns="http://www.w3.org/2000/svg"><g id="Page-1" fill="none" fill-rule="evenodd"><g id="005---Domino-Books" fill-rule="nonzero"><g id="Icons" transform="translate(1 1)"><path id="Shape" d="m36.02 49.45-.87 4.93-14.77-2.61.87-4.92z" fill="#ffeb3a"/><path id="Shape" d="m20.38 51.77 14.77 2.61-.35 2c-.1930197 1.0836591-1.2254011 1.8076668-2.31 1.62l-10.84-1.94c-.5280911-.0855666-.9998886-.3791372-1.309949-.8151009-.3100604-.4359638-.4325348-.9779754-.340051-1.5048991z" fill="#9d27b0"/><path id="Shape" d="m42.44 13.02-.86 4.92h-.01l-14.77-2.61.87-4.92z" fill="#ffeb3a"/><path id="Shape" d="m26.8 15.33 14.77 2.61-5.55 31.51-14.77-2.6z" fill="#9d27b0"/><path id="Shape" d="m42.79 11.05-.35 2-14.77-2.64.35-2c.0926158-.52258399.3891442-.98692802.8242853-1.29077655s.9732096-.42228339 1.4957147-.32922345l10.83 1.94c.522584.09261578.986928.38914423 1.2907766.82428534.3038485.4351411.4222833.97320956.3292234 1.49571466z" fill="#9d27b0"/><path id="Rectangle-path" d="m43 49h15v5h-15z" fill="#ffeb3a"/><path id="Rectangle-path" d="m43 4h15v5h-15z" fill="#ffeb3a"/><path id="Shape" d="m58 2v2h-15v-2c0-1.1045695.8954305-2 2-2h11c1.1045695 0 2 .8954305 2 2z" fill="#f44335"/><path id="Rectangle-path" d="m43 9h15v40h-15z" fill="#f44335"/><path id="Shape" d="m43 54h15v2c0 1.1045695-.8954305 2-2 2h-11c-1.1045695 0-2-.8954305-2-2z" fill="#f44335"/><g fill="#ffeb3a"><rect id="Rectangle-path" height="30" rx="1" width="7" x="47" y="14"/><path id="Shape" d="m15.29 53.77-.93 2.86c-.1626954.5055255-.5197667.9255889-.9924898 1.1675781-.472723.2419892-1.0222804.2860333-1.5275102.1224219l-10.46-3.4c-1.04879708-.3430516-1.62158292-1.4707237-1.28-2.52l.9-2.86z"/><path id="Shape" d="m25.18 23.35-.93 2.85-14.25-4.64.93-2.85c.3430516-1.0487971 1.4707237-1.6215829 2.52-1.28l10.47 3.4c1.0407947.3514186 1.6033419 1.476513 1.26 2.52z"/></g><path id="Shape" d="m24.25 26.2-8.96 27.57-14.26-4.63 8.95-27.58z" fill="#f44335"/></g><g id="Icons_copy" fill="#000"><path id="Shape" d="m57 0h-11c-1.6568542 0-3 1.34314575-3 3v6c-.2128039-.09087597-.4338096-.16119596-.66-.21l-10.83-1.96c-.7897658-.14823254-1.6059859.02656428-2.2657827.48522646-.6597969.45866217-1.1080107 1.16284514-1.2442173 1.95477354l-2.11 12c-.219745-.1482461-.4585908-.2659871-.71-.35l-10.47-3.4c-.7569841-.2461868-1.5807766-.1814346-2.29.18-.6728608.3647796-1.1808543.9729408-1.42 1.7l-.91 2.82-9.94 30.47c-.51237437 1.5739145.34680437 3.2654226 1.92 3.78l10.47 3.4c.7531443.2501862 1.5754442.1852677 2.28-.18.7130787-.3603249 1.2529733-.990202 1.5-1.75l6.85-21.1-1.91 10.83-.87 4.92-.34 2c-.2483492 1.6074645.8295198 3.1200297 2.43 3.41l10.83 2c.1730371.0143313.3469629.0143313.52 0 1.473351.0222747 2.7447584-1.0287554 3-2.48l1.17-6.89 5-28.34v34.71c0 1.6568542 1.3431458 3 3 3h11c1.6568542 0 3-1.3431458 3-3v-54c0-1.65685425-1.3431458-3-3-3zm-33.94 49 12.8 2.25-.52 3-12.8-2.25zm13.15.28-12.81-2.28 5.21-29.55 12.81 2.26zm-7.21-33.76.52-2.95 12.8 2.26-.52 3zm16-4.52h13v38h-13zm0-2v-3h13v3zm0 42h13v3h-13zm1-49h11c.5522847 0 1 .44771525 1 1v1h-13v-1c0-.55228475.4477153-1 1-1zm-15 6.79h.17l10.83 1.92c.2631284.0439656.4977814.1912472.6517742.4090906.1539928.2178435.2145578.4881873.1682258.7509094l-.18 1-12.81-2.27.17-1c.0922491-.47710821.5141358-.81883638 1-.81zm-18.13 11.21c.0807307-.2502339.2567675-.4586039.49-.58.1393223-.0713839.2934577-.1090614.45-.11.1084469.0020052.2161105.0188276.32.05l10.46 3.4c.5141225.1715922.7979596.7215267.64 1.24l-.62 1.9-12.36-4zm2.78 33.49-12.36-4 8.34-25.68 12.36 4zm-1.24 3.81c-.0784288.2539734-.2547448.4662722-.49.59-.238275.1223086-.515655.1439226-.77.06l-10.46-3.38c-.52439854-.1715258-.81079146-.7353618-.64-1.26l.62-1.91 12.36 4zm19.25.7-10.83-1.93c-.2629143-.0417227-.4983418-.1865524-.6541333-.4024081s-.2190873-.4849197-.1758667-.7475919l.17-1 12.83 2.27-.17 1c-.0461858.2633639-.1959186.4972625-.4157588.6494596-.2198402.152197-.4914752.2100146-.7542412.1605404zm23.34 0h-11c-.5522847 0-1-.4477153-1-1v-1h13v1c0 .5522847-.4477153 1-1 1z"/><path id="Shape" d="m54 14h-5c-1.1045695 0-2 .8954305-2 2v28c0 1.1045695.8954305 2 2 2h5c1.1045695 0 2-.8954305 2-2v-28c0-1.1045695-.8954305-2-2-2zm-5 30v-28h5v28z"/><path id="Shape" d="m14.41 29.79c-.5246382-.1707915-1.0884742.1156015-1.26.64l-5.47 16.85c-.17079146.5246382.11560146 1.0884742.64 1.26.10047269.0311413.20483141.0479733.31.05.4325739-.0003187.81590217-.278736.95-.69l5.47-16.85c.1707915-.5246382-.1156015-1.0884742-.64-1.26z"/><path id="Shape" d="m16.31 39.05c-.5246382-.1707915-1.0884742.1156015-1.26.64l-2.93 9c-.0978932.2581955-.0846667.5453776.0365446.793482.1212113.2481045.3396177.4350459.6034554.516518.1004727.0311413.2048314.0479733.31.05.4325739-.0003187.8159022-.278736.95-.69l2.93-9c.0978932-.2581955.0846667-.5453776-.0365446-.793482-.1212113-.2481045-.3396177-.4350459-.6034554-.516518z"/><path id="Shape" d="m37.77 23.17-6.9-1.17c-.5522847-.0938884-1.0761115.2777153-1.17.83-.0938884.5522847.2777153 1.0761116.83 1.17l6.89 1.22h.17c.5522847.0497056 1.0402944-.3577153 1.09-.91s-.3577153-1.0402944-.91-1.09z"/><path id="Shape" d="m37.07 27.11-6.89-1.22c-.5522847-.0966498-1.0783501.2727153-1.1749999.825-.0966499.5522847.2727152 1.0783501.8249999 1.175l6.9 1.22h.17c.5522847.0469442 1.0380558-.3627153 1.085-.915s-.3627153-1.0380558-.915-1.085z"/></g></g></g></svg>