<svg height="512" viewBox="0 0 64 64" width="512" xmlns="http://www.w3.org/2000/svg"><path d="m49 15h-34a2.006 2.006 0 0 0 -2 2v42a2.006 2.006 0 0 0 2 2h34a2.006 2.006 0 0 0 2-2v-42a2.006 2.006 0 0 0 -2-2z" fill="#3d9ae2"/><path d="m47 15v42l-3-4-2.99 4-3-4-3 4-3-4-3 4-3-4-3 4-3-4-3.01 4v-42z" fill="#e6e7e8"/><path d="m34.55 11h-5.1-6.45v4 4h5 8 5v-4-4z" fill="#ff9811"/><path d="m47 18.43v38.57l-3-4-2.99 4-3-4-3 4-3-4-3 4-3-4-3 4-3-4-3.01 4v-6.34a110.4 110.4 0 0 0 30-32.23z" fill="#d8d7da"/><path d="m38 5.4v.16a2.978 2.978 0 0 1 -2.05 2.84l-.81.27 1.91 10.33h-2.04l-1.99-10.82a1 1 0 0 1 .66-1.13l1.64-.54a1 1 0 0 0 .68-.95v-.16a1.012 1.012 0 0 0 -.75-.97 12.5 12.5 0 0 0 -6.5 0 1.012 1.012 0 0 0 -.75.97v.16a1 1 0 0 0 .68.95l1.64.54a1 1 0 0 1 .66 1.13l-1.95 10.82h-2.03l1.86-10.33-.81-.27a2.978 2.978 0 0 1 -2.05-2.84v-.16a3.013 3.013 0 0 1 2.22-2.89 14.263 14.263 0 0 1 7.56 0 3.013 3.013 0 0 1 2.22 2.89z" fill="#ee8700"/><path d="m33 28h-2a1 1 0 0 1 0-2h2a1 1 0 0 1 1 1h2a3 3 0 0 0 -3-3v-2h-2v2a3 3 0 0 0 0 6h2a1 1 0 0 1 0 2h-2a1 1 0 0 1 -1-1h-2a3 3 0 0 0 3 3v2h2v-2a3 3 0 0 0 0-6z" fill="#ff5023"/><path d="m22 39h14v2h-14z" fill="#c6c5ca"/><path d="m38 39h4v2h-4z" fill="#acabb1"/><path d="m22 43h14v2h-14z" fill="#c6c5ca"/><path d="m38 43h4v2h-4z" fill="#acabb1"/><path d="m22 47h14v2h-14z" fill="#c6c5ca"/><path d="m38 47h4v2h-4z" fill="#acabb1"/></svg>