<svg id="Capa_1" enable-background="new 0 0 512 512" height="512" viewBox="0 0 512 512" width="512" xmlns="http://www.w3.org/2000/svg"><g><g><path d="m512 196.528v274.389c0 22.694-18.389 41.083-41.073 41.083h-337.487c-19.388 0-35.634-13.434-39.951-31.503l-.165-23.488-.958-139.878v-276.047c0-22.695 18.389-41.084 41.074-41.084h182.033c16.359 0 69.341 45.173 116.173 92.747 42.732 43.422 80.354 88.843 80.354 103.781z" fill="#ddeafb"/><path d="m512 196.528v100.515c0-.113-.01-.227-.01-.35-3.091-123.333-103.554-129.04-136.406-161.893l56.062-42.052c42.732 43.421 80.354 88.842 80.354 103.78z" fill="#cbe2ff"/><path d="m315.467 0h-100.515c.113 0 .227.01.35.01 123.333 3.091 129.04 103.554 161.893 136.406l42.052-56.062c-43.422-42.732-88.842-80.354-103.78-80.354z" fill="#cbe2ff"/><path d="m512 196.533v17.377c0-36.586-29.667-66.253-66.253-66.253h-40.324c-22.684 0-41.081-18.397-41.081-41.081v-40.323c0-36.586-29.668-66.253-66.253-66.253h17.377c31.29 0 61.308 12.433 83.433 34.557l78.543 78.543c22.125 22.125 34.558 52.143 34.558 83.433z" fill="#bed8fb"/></g><g fill="#617881"><path d="m161.721 193.952h280.919c4.268 0 7.726-3.459 7.726-7.726s-3.459-7.726-7.726-7.726h-280.919c-4.267 0-7.726 3.459-7.726 7.726s3.459 7.726 7.726 7.726z"/><path d="m442.64 219.599h-280.919c-4.267 0-7.726 3.459-7.726 7.726s3.459 7.726 7.726 7.726h280.919c4.268 0 7.726-3.459 7.726-7.726s-3.459-7.726-7.726-7.726z"/><path d="m442.64 260.698h-280.919c-4.267 0-7.726 3.459-7.726 7.726s3.459 7.726 7.726 7.726h280.919c4.268 0 7.726-3.459 7.726-7.726s-3.459-7.726-7.726-7.726z"/><path d="m264.915 301.797h-103.194c-4.267 0-7.726 3.459-7.726 7.726s3.459 7.726 7.726 7.726h103.194c4.268 0 7.726-3.459 7.726-7.726.001-4.267-3.458-7.726-7.726-7.726z"/><path d="m161.721 115.737h103.194c4.268 0 7.726-3.459 7.726-7.726s-3.459-7.726-7.726-7.726h-103.194c-4.267 0-7.726 3.459-7.726 7.726 0 4.266 3.459 7.726 7.726 7.726z"/></g><path d="m413.385 374.432c-2.243-.793-4.538-1.625-6.827-2.491v-36.536c5.757 1.379 9.186 4.291 9.484 4.551 3.139 2.844 7.99 2.629 10.864-.489 2.893-3.137 2.696-8.025-.441-10.918-.439-.405-7.821-7.056-19.907-8.87v-7.462c0-4.267-3.459-7.726-7.726-7.726s-7.726 3.459-7.726 7.726v8.055c-1.147.253-2.31.543-3.5.902-11.052 3.329-19.311 12.788-21.553 24.686-2.044 10.848 1.432 21.308 9.069 27.298 4.047 3.174 9.084 6.082 15.984 9.153v46.328c-5.968-.44-10.104-1.898-16.878-6.33-3.571-2.337-8.358-1.335-10.695 2.236-2.336 3.571-1.335 8.36 2.236 10.696 9.877 6.462 16.625 8.388 25.337 8.879v8.355c0 4.267 3.459 7.726 7.726 7.726s7.726-3.459 7.726-7.726v-8.97c17.335-3.401 27.46-17.695 29.704-31.047 2.887-17.168-6.094-32.093-22.877-38.026zm-28.726-13.435c-3.082-2.417-4.392-7.122-3.421-12.278.871-4.62 3.921-10.173 9.867-12.418v28.816c-2.425-1.315-4.62-2.688-6.446-4.12zm36.365 48.898c-1.189 7.073-6.115 14.571-14.466 17.558v-39.052c.557.2 1.103.398 1.677.601 14.277 5.046 13.399 17.267 12.789 20.893z" fill="#78d0b1"/><circle cx="138.361" cy="423.319" fill="#eab14d" r="88.681"/><circle cx="88.681" cy="423.319" fill="#f1d333" r="88.681"/><path d="m134.217 407.62c-.171-1.817-1.114-8.488-5.917-15.22l3.798-3.798c2.615-2.615 2.615-6.855 0-9.47s-6.855-2.615-9.47 0l-4.143 4.143c-.667-.414-1.352-.821-2.077-1.21-8.213-4.41-18.324-3.729-26.389 1.779-7.37 5.033-11.362 13.017-10.417 20.836.482 3.983 1.637 8.346 3.7 13.778l-25.061 25.061c-2.851-3.425-4.109-6.374-5.317-12.154-.757-3.62-4.309-5.942-7.925-5.184-3.62.757-5.941 4.305-5.184 7.925 1.879 8.988 4.512 13.866 8.93 18.909l-4.25 4.251c-2.615 2.615-2.615 6.855 0 9.47 1.307 1.307 3.021 1.961 4.735 1.961s3.428-.654 4.735-1.961l4.646-4.646c5.142 3.338 10.662 4.751 15.981 4.75 6.778 0 13.227-2.288 18.136-5.785 11.424-8.136 14.813-21.75 8.634-34.685-.747-1.565-1.501-3.172-2.237-4.794l19.503-19.503c1.772 3.164 2.175 5.937 2.256 6.8.346 3.683 3.615 6.381 7.293 6.041 3.681-.347 6.385-3.612 6.04-7.294zm-44.94 24.523c4.937 10.336-2.057 16.393-4.318 18.004-4.253 3.029-10.558 4.443-16.439 2.033l20.526-20.526c.078.165.151.322.231.489zm3.62-29.07c-.338-2.793 1.497-6 4.674-8.17 2.733-1.866 6.909-3.152 10.988-1.703l-14.67 14.67c-.463-1.69-.811-3.305-.992-4.797z" fill="#eab14d"/></g></svg>