<svg height="464pt" viewBox="0 0 464 464" width="464pt" xmlns="http://www.w3.org/2000/svg"><path d="m464 16v80h-464v-80c.0273438-8.824219 7.175781-15.9726562 16-16h432c8.824219.0273438 15.972656 7.175781 16 16zm0 0" fill="#bddbff"/><path d="m464 96v352c-.027344 8.824219-7.175781 15.972656-16 16h-432c-8.824219-.027344-15.9726562-7.175781-16-16v-352zm0 0" fill="#d1e7f8"/><g fill="#bddbff"><path d="m64 48c0 8.835938-7.164062 16-16 16s-16-7.164062-16-16 7.164062-16 16-16 16 7.164062 16 16zm0 0"/><path d="m128 48c0 8.835938-7.164062 16-16 16s-16-7.164062-16-16 7.164062-16 16-16 16 7.164062 16 16zm0 0"/><path d="m192 48c0 8.835938-7.164062 16-16 16s-16-7.164062-16-16 7.164062-16 16-16 16 7.164062 16 16zm0 0"/></g><path d="m132.238281 230.160156 55.523438 55.519532 22.636719 22.640624 55.441406 55.441407c-4.851563 18.074219 1.261718 37.316406 15.648437 49.28125 14.390625 11.964843 34.425781 14.464843 51.3125 6.398437l-31.921875-31.921875 5.601563-17.039062 17.039062-5.601563 31.921875 31.921875c8.066406-16.886719 5.566406-36.921875-6.398437-51.3125-11.964844-14.386719-31.207031-20.5-49.28125-15.648437l-55.441407-55.441406-22.640624-22.636719-55.519532-55.523438c4.851563-18.074219-1.261718-37.316406-15.648437-49.28125-14.390625-11.964843-34.425781-14.464843-51.3125-6.398437l31.921875 31.921875-5.601563 17.039062-17.039062 5.601563-31.921875-31.921875c-8.066406 16.886719-5.566406 36.921875 6.398437 51.3125 11.964844 14.386719 31.207031 20.5 49.28125 15.648437zm0 0" fill="#ff6243"/><path d="m96.398438 422.222656c6.25 6.253906 16.382812 6.253906 22.632812 0l82.503906-82.511718-45.246094-45.246094-82.511718 82.503906c-6.253906 6.25-6.253906 16.382812 0 22.632812zm0 0" fill="#57565c"/><path d="m309.039062 209.601562 5.601563 5.597657h11.3125l11.3125 11.3125-5.65625 16.976562 16.964844 16.96875 45.257812-45.257812-16.96875-16.96875-16.976562 5.65625-11.269531-11.246094v-11.320313l-46.785157-46.777343c-5.648437-5.601563-14.550781-6.230469-20.929687-1.472657l-79.367188 59.570313 73.542969-16.976563 25.90625 25.9375zm0 0" fill="#898890"/><path d="m167.601562 305.761719 22.636719 22.636719 20.160157-20.078126-22.636719-22.640624zm0 0" fill="#c6c5ca"/><path d="m309.039062 209.679688v-.046876l-8.054687-8.058593-14.585937-14.535157-64.71875 64.722657 22.640624 22.636719zm0 0" fill="#c6c5ca"/><path d="m309.039062 209.601562-8.054687-8.027343 8.054687 8.058593zm0 0" fill="#ffda44"/><path d="m48 72c-13.253906 0-24-10.746094-24-24s10.746094-24 24-24 24 10.746094 24 24-10.746094 24-24 24zm0-32c-4.417969 0-8 3.582031-8 8s3.582031 8 8 8 8-3.582031 8-8-3.582031-8-8-8zm0 0" fill="#57a4ff"/><path d="m112 72c-13.253906 0-24-10.746094-24-24s10.746094-24 24-24 24 10.746094 24 24-10.746094 24-24 24zm0-32c-4.417969 0-8 3.582031-8 8s3.582031 8 8 8 8-3.582031 8-8-3.582031-8-8-8zm0 0" fill="#57a4ff"/><path d="m176 72c-13.253906 0-24-10.746094-24-24s10.746094-24 24-24 24 10.746094 24 24-10.746094 24-24 24zm0-32c-4.417969 0-8 3.582031-8 8s3.582031 8 8 8 8-3.582031 8-8-3.582031-8-8-8zm0 0" fill="#57a4ff"/></svg>