<svg height="464pt" viewBox="0 0 464 464" width="464pt" xmlns="http://www.w3.org/2000/svg"><path d="m112 32v384h120v-384zm0 0" fill="#dcf4ca"/><path d="m232 32v384h120v-384zm0 0" fill="#e2f6d4"/><path d="m384 0h-152v32h120v32h32c8.835938 0 16-7.164062 16-16v-32c0-8.835938-7.164062-16-16-16zm0 0" fill="#177af1"/><path d="m232 32v-32h-152c-8.835938 0-16 7.164062-16 16v32c0 8.835938 7.164062 16 16 16h32v-32zm0 0" fill="#006df0"/><path d="m168 80h128v48h-128zm0 0" fill="#9cdd05"/><path d="m392 112v144c39.765625 0 72-32.234375 72-72s-32.234375-72-72-72zm0 0" fill="#ffab3c"/><path d="m352 124.160156v119.679688c11.824219 7.945312 25.753906 12.179687 40 12.160156v-144c-14.246094-.019531-28.175781 4.214844-40 12.160156zm0 0" fill="#ff9811"/><path d="m280 392c0 39.765625 32.234375 72 72 72v-144c-39.765625 0-72 32.234375-72 72zm0 0" fill="#ff9811"/><path d="m352 320v144c39.765625 0 72-32.234375 72-72s-32.234375-72-72-72zm0 0" fill="#ffab3c"/><path d="m0 280c0 39.765625 32.234375 72 72 72v-144c-39.765625 0-72 32.234375-72 72zm0 0" fill="#ff9811"/><path d="m72 352c14.246094.019531 28.175781-4.214844 40-12.160156v-119.679688c-11.824219-7.945312-25.753906-12.179687-40-12.160156zm0 0" fill="#ffab3c"/><path d="m344 344v9.472656c-11.011719 3.878906-17.621094 15.132813-15.644531 26.640625 1.980469 11.507813 11.96875 19.910157 23.644531 19.886719 4.417969 0 8 3.582031 8 8s-3.582031 8-8 8-8-3.582031-8-8h-16c.042969 10.132812 6.445312 19.148438 16 22.527344v9.472656h16v-9.472656c11.011719-3.878906 17.621094-15.132813 15.644531-26.640625-1.980469-11.507813-11.96875-19.910157-23.644531-19.886719-4.417969 0-8-3.582031-8-8s3.582031-8 8-8 8 3.582031 8 8h16c-.042969-10.132812-6.445312-19.148438-16-22.527344v-9.472656zm0 0" fill="#ff5023"/><path d="m392 192c4.417969 0 8 3.582031 8 8s-3.582031 8-8 8-8-3.582031-8-8h-16c.042969 10.132812 6.445312 19.148438 16 22.527344v9.472656h16v-9.472656c11.011719-3.878906 17.621094-15.132813 15.644531-26.640625-1.980469-11.507813-11.96875-19.910157-23.644531-19.886719-4.417969 0-8-3.582031-8-8s3.582031-8 8-8 8 3.582031 8 8h16c-.042969-10.132812-6.445312-19.148438-16-22.527344v-9.472656h-16v9.472656c-11.011719 3.878906-17.621094 15.132813-15.644531 26.640625 1.980469 11.507813 11.96875 19.910157 23.644531 19.886719zm0 0" fill="#ff5023"/><path d="m72 256c4.417969 0 8 3.582031 8 8h16c-.042969-10.132812-6.445312-19.148438-16-22.527344v-9.472656h-16v9.472656c-11.011719 3.878906-17.621094 15.132813-15.644531 26.640625 1.980469 11.507813 11.96875 19.910157 23.644531 19.886719 4.417969 0 8 3.582031 8 8s-3.582031 8-8 8-8-3.582031-8-8h-16c.042969 10.132812 6.445312 19.148438 16 22.527344v9.472656h16v-9.472656c11.011719-3.878906 17.621094-15.132813 15.644531-26.640625-1.980469-11.507813-11.96875-19.910157-23.644531-19.886719-4.417969 0-8-3.582031-8-8s3.582031-8 8-8zm0 0" fill="#ff5023"/><g fill="#4e901e"><path d="m160 152h16v16h-16zm0 0"/><path d="m192 152h112v16h-112zm0 0"/><path d="m160 184h16v16h-16zm0 0"/><path d="m192 184h112v16h-112zm0 0"/><path d="m160 216h16v16h-16zm0 0"/><path d="m192 216h112v16h-112zm0 0"/><path d="m152 376h72v16h-72zm0 0"/><path d="m240 376h16v16h-16zm0 0"/><path d="m152 344h72v16h-72zm0 0"/><path d="m240 344h16v16h-16zm0 0"/></g><path d="m96 24h272v16h-272zm0 0" fill="#3551a3"/></svg>